<svg xmlns="http://www.w3.org/2000/svg" fill="none" viewBox="0 0 71 71">
  <rect width="70" height="70" x=".6" y=".7" fill="#393939" rx="35"/>
  <path stroke="#fff" stroke-miterlimit="10" stroke-width="1.5" d="M37.7 30.2s0-3.7 3.6-3.7 3.6 3.7 3.6 3.7M37 33.7h8.1v3.6s.1 2.5-2.4 2.5H40s-2.3 0-2.3-2.3v-.7m-12.2-3.1h8.1v3.6s.1 2.5-2.4 2.5h-2.7s-2.3 0-2.3-2.3v-.7M42.8 8.2s3.6.1 3.6 3.7-3.5 3.7-3.5 3.7h-.8c-1.4 0-2.9-.1-4.3.1-2 .4-3.7 1.8-4.8 3.5-1 1.6-1 3.8-1 3.8-7.3 0-7.3 7.2-7.3 7.2m-.3 15.2c0 1.6.4 3.2.9 4.8.4 1.3 1 2.5 1.9 3.6.8 1.2 2 2.3 3 3.4 2 2 3.7 3.7 5.6 5.7l.3.3m10.8-17.8c0 1.5-.4 3.2-.9 4.6-.4 1.2-1 2.4-1.6 3.5-.9 1.2-1.9 2.2-2.9 3.3-1.8 1.9-3.6 3.7-5.4 5.7M46 46.2c-.4.2-.8.3-1.2.3-.8 0-1.8-.1-2.5-.7-.4-.3-.7-.8-1-1.2-1-1.3-2.1-1.3-2.1-1.3s-1.2-.1-2.2.6c-.9.7-.9 2.1-.9 2.1s-.3 2.6 2.5 4c2.8 1.5 5.2-.1 5.2-.1 1.1-.7 2.1-1.6 2.6-2.8.2-.5.5-1 .5-1.6-.3.3-.6.6-.9.7Zm-20.6 0c.4.2.8.3 1.2.3.8 0 1.8-.1 2.5-.7.4-.3.7-.8 1-1.2 1-1.3 2.1-1.3 2.1-1.3s1.2-.1 2.2.6c.9.7.9 2.1.9 2.1s.1 2.3-2.5 4c-.5.3-1 .5-1.6.7-.5.1-1 .1-1.5 0l-1.2-.3c-.3-.1-.5-.2-.8-.3-.5-.3-.9-.6-1.3-1s-.8-.7-1.1-1.2c-.2-.3-.3-.5-.5-.8-.2-.5-.5-1-.5-1.6.5.3.8.6 1.1.7Z"/>
</svg>
